<?plantuml 1.2026.2beta3?><svg xmlns="http://www.w3.org/2000/svg" xmlns:xlink="http://www.w3.org/1999/xlink" contentStyleType="text/css" data-diagram-type="CLASS" height="1196px" preserveAspectRatio="none" style="width:993px;height:1196px;background:#FFFFFF;" version="1.1" viewBox="0 0 993 1196" width="993px" zoomAndPan="magnify"><defs/><g><!--class User--><g class="entity" data-qualified-name="User" data-source-line="1" id="ent0002"><rect fill="#F1F1F1" height="227.2656" rx="2.5" ry="2.5" style="stroke:#181818;stroke-width:0.5;" width="208.417" x="219.77" y="7"/><ellipse cx="303.7734" cy="23" fill="#A9DCDF" rx="11" ry="11" style="stroke:#181818;stroke-width:1;"/><path d="M303.8828,18.3438 L302.7265,23.4219 L305.0547,23.4219 L303.8828,18.3438 Z M302.3984,16.1094 L305.3828,16.1094 L308.7422,28.5 L306.289,28.5 L305.5234,25.4375 L302.2422,25.4375 L301.4922,28.5 L299.0547,28.5 L302.3984,16.1094 Z " fill="#000000"/><text fill="#000000" font-family="sans-serif" font-size="14" font-style="italic" lengthAdjust="spacing" textLength="31.9102" x="324.2734" y="27.8467">User</text><line style="stroke:#181818;stroke-width:0.5;" x1="220.77" x2="427.187" y1="39" y2="39"/><g data-visibility-modifier="PUBLIC_FIELD"><ellipse cx="230.77" cy="52.6484" fill="none" rx="3" ry="3" style="stroke:#038048;stroke-width:1;"/></g><text fill="#000000" font-family="sans-serif" font-size="14" lengthAdjust="spacing" textLength="52.6299" x="239.77" y="55.9951">UUID id</text><g data-visibility-modifier="PUBLIC_FIELD"><ellipse cx="230.77" cy="68.9453" fill="none" rx="3" ry="3" style="stroke:#038048;stroke-width:1;"/></g><text fill="#000000" font-family="sans-serif" font-size="14" lengthAdjust="spacing" textLength="154.3213" x="239.77" y="72.292">String universityEmail</text><g data-visibility-modifier="PUBLIC_FIELD"><ellipse cx="230.77" cy="85.2422" fill="none" rx="3" ry="3" style="stroke:#038048;stroke-width:1;"/></g><text fill="#000000" font-family="sans-serif" font-size="14" lengthAdjust="spacing" textLength="148.2168" x="239.77" y="88.5889">String passwordHash</text><g data-visibility-modifier="PUBLIC_FIELD"><ellipse cx="230.77" cy="101.5391" fill="none" rx="3" ry="3" style="stroke:#038048;stroke-width:1;"/></g><text fill="#000000" font-family="sans-serif" font-size="14" lengthAdjust="spacing" textLength="109.1152" x="239.77" y="104.8857">String fullName</text><g data-visibility-modifier="PUBLIC_FIELD"><ellipse cx="230.77" cy="117.8359" fill="none" rx="3" ry="3" style="stroke:#038048;stroke-width:1;"/></g><text fill="#000000" font-family="sans-serif" font-size="14" lengthAdjust="spacing" textLength="93.9736" x="239.77" y="121.1826">String faculty</text><g data-visibility-modifier="PUBLIC_FIELD"><ellipse cx="230.77" cy="134.1328" fill="none" rx="3" ry="3" style="stroke:#038048;stroke-width:1;"/></g><text fill="#000000" font-family="sans-serif" font-size="14" lengthAdjust="spacing" textLength="153.8906" x="239.77" y="137.4795">Integer academicYear</text><g data-visibility-modifier="PUBLIC_FIELD"><ellipse cx="230.77" cy="150.4297" fill="none" rx="3" ry="3" style="stroke:#038048;stroke-width:1;"/></g><text fill="#000000" font-family="sans-serif" font-size="14" lengthAdjust="spacing" textLength="150.5889" x="239.77" y="153.7764">String profilePhotoUrl</text><g data-visibility-modifier="PUBLIC_FIELD"><ellipse cx="230.77" cy="166.7266" fill="none" rx="3" ry="3" style="stroke:#038048;stroke-width:1;"/></g><text fill="#000000" font-family="sans-serif" font-size="14" lengthAdjust="spacing" textLength="126.4785" x="239.77" y="170.0732">Boolean isVerified</text><g data-visibility-modifier="PUBLIC_FIELD"><ellipse cx="230.77" cy="183.0234" fill="none" rx="3" ry="3" style="stroke:#038048;stroke-width:1;"/></g><text fill="#000000" font-family="sans-serif" font-size="14" lengthAdjust="spacing" textLength="123.9902" x="239.77" y="186.3701">UserStatus status</text><g data-visibility-modifier="PUBLIC_FIELD"><ellipse cx="230.77" cy="199.3203" fill="none" rx="3" ry="3" style="stroke:#038048;stroke-width:1;"/></g><text fill="#000000" font-family="sans-serif" font-size="14" lengthAdjust="spacing" textLength="177.8369" x="239.77" y="202.667">LocalDateTime createdAt</text><g data-visibility-modifier="PUBLIC_FIELD"><ellipse cx="230.77" cy="215.6172" fill="none" rx="3" ry="3" style="stroke:#038048;stroke-width:1;"/></g><text fill="#000000" font-family="sans-serif" font-size="14" lengthAdjust="spacing" textLength="182.417" x="239.77" y="218.9639">LocalDateTime updatedAt</text><line style="stroke:#181818;stroke-width:0.5;" x1="220.77" x2="427.187" y1="226.2656" y2="226.2656"/></g><!--class Buyer--><g class="entity" data-qualified-name="Buyer" data-source-line="15" id="ent0003"><rect fill="#F1F1F1" height="80.5938" rx="2.5" ry="2.5" style="stroke:#181818;stroke-width:0.5;" width="223.9482" x="7" y="454.45"/><ellipse cx="94.1582" cy="470.45" fill="#ADD1B2" rx="11" ry="11" style="stroke:#181818;stroke-width:1;"/><path d="M97.127,476.0906 Q96.5488,476.3875 95.9082,476.5281 Q95.2676,476.6844 94.5645,476.6844 Q92.0645,476.6844 90.7363,475.0437 Q89.4238,473.3875 89.4238,470.2625 Q89.4238,467.1375 90.7363,465.4812 Q92.0645,463.825 94.5645,463.825 Q95.2676,463.825 95.9082,463.9812 Q96.5645,464.1375 97.127,464.4344 L97.127,467.1531 Q96.502,466.575 95.9082,466.3094 Q95.3145,466.0281 94.6895,466.0281 Q93.3457,466.0281 92.6582,467.1062 Q91.9707,468.1687 91.9707,470.2625 Q91.9707,472.3562 92.6582,473.4344 Q93.3457,474.4969 94.6895,474.4969 Q95.3145,474.4969 95.9082,474.2312 Q96.502,473.95 97.127,473.3719 L97.127,476.0906 Z " fill="#000000"/><text fill="#000000" font-family="sans-serif" font-size="14" lengthAdjust="spacing" textLength="41.1318" x="114.6582" y="475.2967">Buyer</text><line style="stroke:#181818;stroke-width:0.5;" x1="8" x2="229.9482" y1="486.45" y2="486.45"/><g data-visibility-modifier="PUBLIC_FIELD"><ellipse cx="18" cy="500.0984" fill="none" rx="3" ry="3" style="stroke:#038048;stroke-width:1;"/></g><text fill="#000000" font-family="sans-serif" font-size="14" lengthAdjust="spacing" textLength="158.2451" x="27" y="503.4451">Integer totalPurchases</text><g data-visibility-modifier="PUBLIC_FIELD"><ellipse cx="18" cy="516.3953" fill="none" rx="3" ry="3" style="stroke:#038048;stroke-width:1;"/></g><text fill="#000000" font-family="sans-serif" font-size="14" lengthAdjust="spacing" textLength="197.9482" x="27" y="519.742">Double averageBuyerRating</text><line style="stroke:#181818;stroke-width:0.5;" x1="8" x2="229.9482" y1="527.0437" y2="527.0437"/></g><!--class Seller--><g class="entity" data-qualified-name="Seller" data-source-line="20" id="ent0004"><rect fill="#F1F1F1" height="96.8906" rx="2.5" ry="2.5" style="stroke:#181818;stroke-width:0.5;" width="222.4648" x="171.74" y="319.42"/><ellipse cx="258.8982" cy="335.42" fill="#ADD1B2" rx="11" ry="11" style="stroke:#181818;stroke-width:1;"/><path d="M261.867,341.0606 Q261.2888,341.3575 260.6482,341.4981 Q260.0076,341.6544 259.3045,341.6544 Q256.8045,341.6544 255.4763,340.0137 Q254.1638,338.3575 254.1638,335.2325 Q254.1638,332.1075 255.4763,330.4512 Q256.8045,328.795 259.3045,328.795 Q260.0076,328.795 260.6482,328.9512 Q261.3045,329.1075 261.867,329.4044 L261.867,332.1231 Q261.242,331.545 260.6482,331.2794 Q260.0545,330.9981 259.4295,330.9981 Q258.0857,330.9981 257.3982,332.0762 Q256.7107,333.1387 256.7107,335.2325 Q256.7107,337.3262 257.3982,338.4044 Q258.0857,339.4669 259.4295,339.4669 Q260.0545,339.4669 260.6482,339.2012 Q261.242,338.92 261.867,338.3419 L261.867,341.0606 Z " fill="#000000"/><text fill="#000000" font-family="sans-serif" font-size="14" lengthAdjust="spacing" textLength="39.6484" x="279.3982" y="340.2667">Seller</text><line style="stroke:#181818;stroke-width:0.5;" x1="172.74" x2="393.2048" y1="351.42" y2="351.42"/><g data-visibility-modifier="PUBLIC_FIELD"><ellipse cx="182.74" cy="365.0684" fill="none" rx="3" ry="3" style="stroke:#038048;stroke-width:1;"/></g><text fill="#000000" font-family="sans-serif" font-size="14" lengthAdjust="spacing" textLength="124.0859" x="191.74" y="368.4151">Integer totalSales</text><g data-visibility-modifier="PUBLIC_FIELD"><ellipse cx="182.74" cy="381.3653" fill="none" rx="3" ry="3" style="stroke:#038048;stroke-width:1;"/></g><text fill="#000000" font-family="sans-serif" font-size="14" lengthAdjust="spacing" textLength="196.4648" x="191.74" y="384.712">Double averageSellerRating</text><g data-visibility-modifier="PUBLIC_FIELD"><ellipse cx="182.74" cy="397.6622" fill="none" rx="3" ry="3" style="stroke:#038048;stroke-width:1;"/></g><text fill="#000000" font-family="sans-serif" font-size="14" lengthAdjust="spacing" textLength="165.4365" x="191.74" y="401.0089">Boolean isTrustedSeller</text><line style="stroke:#181818;stroke-width:0.5;" x1="172.74" x2="393.2048" y1="408.3106" y2="408.3106"/></g><!--class Listing--><g class="entity" data-qualified-name="Listing" data-source-line="29" id="ent0007"><rect fill="#F1F1F1" height="227.2656" rx="2.5" ry="2.5" style="stroke:#181818;stroke-width:0.5;" width="208.417" x="306.77" y="565.05"/><ellipse cx="383.6675" cy="581.05" fill="#ADD1B2" rx="11" ry="11" style="stroke:#181818;stroke-width:1;"/><path d="M386.6362,586.6906 Q386.0581,586.9875 385.4175,587.1281 Q384.7768,587.2844 384.0737,587.2844 Q381.5737,587.2844 380.2456,585.6438 Q378.9331,583.9875 378.9331,580.8625 Q378.9331,577.7375 380.2456,576.0813 Q381.5737,574.425 384.0737,574.425 Q384.7768,574.425 385.4175,574.5813 Q386.0737,574.7375 386.6362,575.0344 L386.6362,577.7531 Q386.0112,577.175 385.4175,576.9094 Q384.8237,576.6281 384.1987,576.6281 Q382.855,576.6281 382.1675,577.7063 Q381.48,578.7688 381.48,580.8625 Q381.48,582.9563 382.1675,584.0344 Q382.855,585.0969 384.1987,585.0969 Q384.8237,585.0969 385.4175,584.8313 Q386.0112,584.55 386.6362,583.9719 L386.6362,586.6906 Z " fill="#000000"/><text fill="#000000" font-family="sans-serif" font-size="14" lengthAdjust="spacing" textLength="46.1221" x="404.1675" y="585.8967">Listing</text><line style="stroke:#181818;stroke-width:0.5;" x1="307.77" x2="514.187" y1="597.05" y2="597.05"/><g data-visibility-modifier="PUBLIC_FIELD"><ellipse cx="317.77" cy="610.6984" fill="none" rx="3" ry="3" style="stroke:#038048;stroke-width:1;"/></g><text fill="#000000" font-family="sans-serif" font-size="14" lengthAdjust="spacing" textLength="52.6299" x="326.77" y="614.0451">UUID id</text><g data-visibility-modifier="PUBLIC_FIELD"><ellipse cx="317.77" cy="626.9953" fill="none" rx="3" ry="3" style="stroke:#038048;stroke-width:1;"/></g><text fill="#000000" font-family="sans-serif" font-size="14" lengthAdjust="spacing" textLength="73.6025" x="326.77" y="630.342">String title</text><g data-visibility-modifier="PUBLIC_FIELD"><ellipse cx="317.77" cy="643.2922" fill="none" rx="3" ry="3" style="stroke:#038048;stroke-width:1;"/></g><text fill="#000000" font-family="sans-serif" font-size="14" lengthAdjust="spacing" textLength="124.0723" x="326.77" y="646.6389">String description</text><g data-visibility-modifier="PUBLIC_FIELD"><ellipse cx="317.77" cy="659.5891" fill="none" rx="3" ry="3" style="stroke:#038048;stroke-width:1;"/></g><text fill="#000000" font-family="sans-serif" font-size="14" lengthAdjust="spacing" textLength="164.6094" x="326.77" y="662.9357">CategoryType category</text><g data-visibility-modifier="PUBLIC_FIELD"><ellipse cx="317.77" cy="675.8859" fill="none" rx="3" ry="3" style="stroke:#038048;stroke-width:1;"/></g><text fill="#000000" font-family="sans-serif" font-size="14" lengthAdjust="spacing" textLength="170.3242" x="326.77" y="679.2326">ConditionType condition</text><g data-visibility-modifier="PUBLIC_FIELD"><ellipse cx="317.77" cy="692.1828" fill="none" rx="3" ry="3" style="stroke:#038048;stroke-width:1;"/></g><text fill="#000000" font-family="sans-serif" font-size="14" lengthAdjust="spacing" textLength="140.7861" x="326.77" y="695.5295">Double originalPrice</text><g data-visibility-modifier="PUBLIC_FIELD"><ellipse cx="317.77" cy="708.4797" fill="none" rx="3" ry="3" style="stroke:#038048;stroke-width:1;"/></g><text fill="#000000" font-family="sans-serif" font-size="14" lengthAdjust="spacing" textLength="161.2939" x="326.77" y="711.8264">Double suggestedPrice</text><g data-visibility-modifier="PUBLIC_FIELD"><ellipse cx="317.77" cy="724.7766" fill="none" rx="3" ry="3" style="stroke:#038048;stroke-width:1;"/></g><text fill="#000000" font-family="sans-serif" font-size="14" lengthAdjust="spacing" textLength="133.793" x="326.77" y="728.1232">Double sellingPrice</text><g data-visibility-modifier="PUBLIC_FIELD"><ellipse cx="317.77" cy="741.0734" fill="none" rx="3" ry="3" style="stroke:#038048;stroke-width:1;"/></g><text fill="#000000" font-family="sans-serif" font-size="14" lengthAdjust="spacing" textLength="138.2021" x="326.77" y="744.4201">ListingStatus status</text><g data-visibility-modifier="PUBLIC_FIELD"><ellipse cx="317.77" cy="757.3703" fill="none" rx="3" ry="3" style="stroke:#038048;stroke-width:1;"/></g><text fill="#000000" font-family="sans-serif" font-size="14" lengthAdjust="spacing" textLength="177.8369" x="326.77" y="760.717">LocalDateTime createdAt</text><g data-visibility-modifier="PUBLIC_FIELD"><ellipse cx="317.77" cy="773.6672" fill="none" rx="3" ry="3" style="stroke:#038048;stroke-width:1;"/></g><text fill="#000000" font-family="sans-serif" font-size="14" lengthAdjust="spacing" textLength="182.417" x="326.77" y="777.0139">LocalDateTime updatedAt</text><line style="stroke:#181818;stroke-width:0.5;" x1="307.77" x2="514.187" y1="784.3156" y2="784.3156"/></g><!--class ListingImage--><g class="entity" data-qualified-name="ListingImage" data-source-line="43" id="ent0008"><rect fill="#F1F1F1" height="113.1875" rx="2.5" ry="2.5" style="stroke:#181818;stroke-width:0.5;" width="215.3828" x="771.28" y="869.61"/><ellipse cx="829.7375" cy="885.61" fill="#ADD1B2" rx="11" ry="11" style="stroke:#181818;stroke-width:1;"/><path d="M832.7063,891.2506 Q832.1281,891.5475 831.4875,891.6881 Q830.8469,891.8444 830.1438,891.8444 Q827.6438,891.8444 826.3156,890.2037 Q825.0031,888.5475 825.0031,885.4225 Q825.0031,882.2975 826.3156,880.6412 Q827.6438,878.985 830.1438,878.985 Q830.8469,878.985 831.4875,879.1412 Q832.1438,879.2975 832.7063,879.5944 L832.7063,882.3131 Q832.0813,881.735 831.4875,881.4694 Q830.8938,881.1881 830.2688,881.1881 Q828.925,881.1881 828.2375,882.2662 Q827.55,883.3287 827.55,885.4225 Q827.55,887.5162 828.2375,888.5944 Q828.925,889.6569 830.2688,889.6569 Q830.8938,889.6569 831.4875,889.3912 Q832.0813,889.11 832.7063,888.5319 L832.7063,891.2506 Z " fill="#000000"/><text fill="#000000" font-family="sans-serif" font-size="14" lengthAdjust="spacing" textLength="89.9678" x="850.2375" y="890.4567">ListingImage</text><line style="stroke:#181818;stroke-width:0.5;" x1="772.28" x2="985.6628" y1="901.61" y2="901.61"/><g data-visibility-modifier="PUBLIC_FIELD"><ellipse cx="782.28" cy="915.2584" fill="none" rx="3" ry="3" style="stroke:#038048;stroke-width:1;"/></g><text fill="#000000" font-family="sans-serif" font-size="14" lengthAdjust="spacing" textLength="52.6299" x="791.28" y="918.6051">UUID id</text><g data-visibility-modifier="PUBLIC_FIELD"><ellipse cx="782.28" cy="931.5553" fill="none" rx="3" ry="3" style="stroke:#038048;stroke-width:1;"/></g><text fill="#000000" font-family="sans-serif" font-size="14" lengthAdjust="spacing" textLength="109.7305" x="791.28" y="934.902">String imageUrl</text><g data-visibility-modifier="PUBLIC_FIELD"><ellipse cx="782.28" cy="947.8522" fill="none" rx="3" ry="3" style="stroke:#038048;stroke-width:1;"/></g><text fill="#000000" font-family="sans-serif" font-size="14" lengthAdjust="spacing" textLength="126.6699" x="791.28" y="951.1989">Boolean isPrimary</text><g data-visibility-modifier="PUBLIC_FIELD"><ellipse cx="782.28" cy="964.1491" fill="none" rx="3" ry="3" style="stroke:#038048;stroke-width:1;"/></g><text fill="#000000" font-family="sans-serif" font-size="14" lengthAdjust="spacing" textLength="189.3828" x="791.28" y="967.4957">LocalDateTime uploadedAt</text><line style="stroke:#181818;stroke-width:0.5;" x1="772.28" x2="985.6628" y1="974.7975" y2="974.7975"/></g><!--class Transaction--><g class="entity" data-qualified-name="Transaction" data-source-line="50" id="ent0009"><rect fill="#F1F1F1" height="145.7813" rx="2.5" ry="2.5" style="stroke:#181818;stroke-width:0.5;" width="261.293" x="22.33" y="853.31"/><ellipse cx="107.6528" cy="869.31" fill="#ADD1B2" rx="11" ry="11" style="stroke:#181818;stroke-width:1;"/><path d="M110.6215,874.9506 Q110.0434,875.2475 109.4028,875.3881 Q108.7621,875.5444 108.059,875.5444 Q105.559,875.5444 104.2309,873.9038 Q102.9184,872.2475 102.9184,869.1225 Q102.9184,865.9975 104.2309,864.3413 Q105.559,862.685 108.059,862.685 Q108.7621,862.685 109.4028,862.8413 Q110.059,862.9975 110.6215,863.2944 L110.6215,866.0131 Q109.9965,865.435 109.4028,865.1694 Q108.809,864.8881 108.184,864.8881 Q106.8403,864.8881 106.1528,865.9663 Q105.4653,867.0288 105.4653,869.1225 Q105.4653,871.2163 106.1528,872.2944 Q106.8403,873.3569 108.184,873.3569 Q108.809,873.3569 109.4028,873.0913 Q109.9965,872.81 110.6215,872.2319 L110.6215,874.9506 Z " fill="#000000"/><text fill="#000000" font-family="sans-serif" font-size="14" lengthAdjust="spacing" textLength="82.1475" x="128.1528" y="874.1567">Transaction</text><line style="stroke:#181818;stroke-width:0.5;" x1="23.33" x2="282.623" y1="885.31" y2="885.31"/><g data-visibility-modifier="PUBLIC_FIELD"><ellipse cx="33.33" cy="898.9584" fill="none" rx="3" ry="3" style="stroke:#038048;stroke-width:1;"/></g><text fill="#000000" font-family="sans-serif" font-size="14" lengthAdjust="spacing" textLength="52.6299" x="42.33" y="902.3051">UUID id</text><g data-visibility-modifier="PUBLIC_FIELD"><ellipse cx="33.33" cy="915.2553" fill="none" rx="3" ry="3" style="stroke:#038048;stroke-width:1;"/></g><text fill="#000000" font-family="sans-serif" font-size="14" lengthAdjust="spacing" textLength="137.792" x="42.33" y="918.602">Double agreedPrice</text><g data-visibility-modifier="PUBLIC_FIELD"><ellipse cx="33.33" cy="931.5522" fill="none" rx="3" ry="3" style="stroke:#038048;stroke-width:1;"/></g><text fill="#000000" font-family="sans-serif" font-size="14" lengthAdjust="spacing" textLength="174.2275" x="42.33" y="934.8989">TransactionStatus status</text><g data-visibility-modifier="PUBLIC_FIELD"><ellipse cx="33.33" cy="947.8491" fill="none" rx="3" ry="3" style="stroke:#038048;stroke-width:1;"/></g><text fill="#000000" font-family="sans-serif" font-size="14" lengthAdjust="spacing" textLength="163.6934" x="42.33" y="951.1957">String meetingLocation</text><g data-visibility-modifier="PUBLIC_FIELD"><ellipse cx="33.33" cy="964.1459" fill="none" rx="3" ry="3" style="stroke:#038048;stroke-width:1;"/></g><text fill="#000000" font-family="sans-serif" font-size="14" lengthAdjust="spacing" textLength="235.293" x="42.33" y="967.4926">LocalDateTime meetingDateTime</text><g data-visibility-modifier="PUBLIC_FIELD"><ellipse cx="33.33" cy="980.4428" fill="none" rx="3" ry="3" style="stroke:#038048;stroke-width:1;"/></g><text fill="#000000" font-family="sans-serif" font-size="14" lengthAdjust="spacing" textLength="177.8369" x="42.33" y="983.7895">LocalDateTime createdAt</text><line style="stroke:#181818;stroke-width:0.5;" x1="23.33" x2="282.623" y1="991.0913" y2="991.0913"/></g><!--class Message--><g class="entity" data-qualified-name="Message" data-source-line="59" id="ent0010"><rect fill="#F1F1F1" height="113.1875" rx="2.5" ry="2.5" style="stroke:#181818;stroke-width:0.5;" width="180.4717" x="428.74" y="311.27"/><ellipse cx="484.0462" cy="327.27" fill="#ADD1B2" rx="11" ry="11" style="stroke:#181818;stroke-width:1;"/><path d="M487.0149,332.9106 Q486.4368,333.2075 485.7962,333.3481 Q485.1555,333.5044 484.4524,333.5044 Q481.9524,333.5044 480.6243,331.8638 Q479.3118,330.2075 479.3118,327.0825 Q479.3118,323.9575 480.6243,322.3013 Q481.9524,320.645 484.4524,320.645 Q485.1555,320.645 485.7962,320.8013 Q486.4524,320.9575 487.0149,321.2544 L487.0149,323.9731 Q486.3899,323.395 485.7962,323.1294 Q485.2024,322.8481 484.5774,322.8481 Q483.2337,322.8481 482.5462,323.9263 Q481.8587,324.9888 481.8587,327.0825 Q481.8587,329.1763 482.5462,330.2544 Q483.2337,331.3169 484.5774,331.3169 Q485.2024,331.3169 485.7962,331.0513 Q486.3899,330.77 487.0149,330.1919 L487.0149,332.9106 Z " fill="#000000"/><text fill="#000000" font-family="sans-serif" font-size="14" lengthAdjust="spacing" textLength="61.3594" x="504.5462" y="332.1167">Message</text><line style="stroke:#181818;stroke-width:0.5;" x1="429.74" x2="608.2117" y1="343.27" y2="343.27"/><g data-visibility-modifier="PUBLIC_FIELD"><ellipse cx="439.74" cy="356.9184" fill="none" rx="3" ry="3" style="stroke:#038048;stroke-width:1;"/></g><text fill="#000000" font-family="sans-serif" font-size="14" lengthAdjust="spacing" textLength="52.6299" x="448.74" y="360.2651">UUID id</text><g data-visibility-modifier="PUBLIC_FIELD"><ellipse cx="439.74" cy="373.2153" fill="none" rx="3" ry="3" style="stroke:#038048;stroke-width:1;"/></g><text fill="#000000" font-family="sans-serif" font-size="14" lengthAdjust="spacing" textLength="99.832" x="448.74" y="376.562">String content</text><g data-visibility-modifier="PUBLIC_FIELD"><ellipse cx="439.74" cy="389.5122" fill="none" rx="3" ry="3" style="stroke:#038048;stroke-width:1;"/></g><text fill="#000000" font-family="sans-serif" font-size="14" lengthAdjust="spacing" textLength="154.4717" x="448.74" y="392.8589">LocalDateTime sentAt</text><g data-visibility-modifier="PUBLIC_FIELD"><ellipse cx="439.74" cy="405.8091" fill="none" rx="3" ry="3" style="stroke:#038048;stroke-width:1;"/></g><text fill="#000000" font-family="sans-serif" font-size="14" lengthAdjust="spacing" textLength="108.1309" x="448.74" y="409.1557">Boolean isRead</text><line style="stroke:#181818;stroke-width:0.5;" x1="429.74" x2="608.2117" y1="416.4575" y2="416.4575"/></g><!--class Review--><g class="entity" data-qualified-name="Review" data-source-line="66" id="ent0011"><rect fill="#F1F1F1" height="129.4844" rx="2.5" ry="2.5" style="stroke:#181818;stroke-width:0.5;" width="203.8369" x="51.06" y="1060.1"/><ellipse cx="123.4389" cy="1076.1" fill="#ADD1B2" rx="11" ry="11" style="stroke:#181818;stroke-width:1;"/><path d="M126.4077,1081.7406 Q125.8295,1082.0375 125.1889,1082.1781 Q124.5483,1082.3344 123.8452,1082.3344 Q121.3452,1082.3344 120.017,1080.6938 Q118.7045,1079.0375 118.7045,1075.9125 Q118.7045,1072.7875 120.017,1071.1313 Q121.3452,1069.475 123.8452,1069.475 Q124.5483,1069.475 125.1889,1069.6313 Q125.8452,1069.7875 126.4077,1070.0844 L126.4077,1072.8031 Q125.7827,1072.225 125.1889,1071.9594 Q124.5952,1071.6781 123.9702,1071.6781 Q122.6264,1071.6781 121.9389,1072.7563 Q121.2514,1073.8188 121.2514,1075.9125 Q121.2514,1078.0063 121.9389,1079.0844 Q122.6264,1080.1469 123.9702,1080.1469 Q124.5952,1080.1469 125.1889,1079.8813 Q125.7827,1079.6 126.4077,1079.0219 L126.4077,1081.7406 Z " fill="#000000"/><text fill="#000000" font-family="sans-serif" font-size="14" lengthAdjust="spacing" textLength="50.5791" x="143.9389" y="1080.9467">Review</text><line style="stroke:#181818;stroke-width:0.5;" x1="52.06" x2="253.8969" y1="1092.1" y2="1092.1"/><g data-visibility-modifier="PUBLIC_FIELD"><ellipse cx="62.06" cy="1105.7484" fill="none" rx="3" ry="3" style="stroke:#038048;stroke-width:1;"/></g><text fill="#000000" font-family="sans-serif" font-size="14" lengthAdjust="spacing" textLength="52.6299" x="71.06" y="1109.0951">UUID id</text><g data-visibility-modifier="PUBLIC_FIELD"><ellipse cx="62.06" cy="1122.0453" fill="none" rx="3" ry="3" style="stroke:#038048;stroke-width:1;"/></g><text fill="#000000" font-family="sans-serif" font-size="14" lengthAdjust="spacing" textLength="96.2842" x="71.06" y="1125.392">Integer rating</text><g data-visibility-modifier="PUBLIC_FIELD"><ellipse cx="62.06" cy="1138.3422" fill="none" rx="3" ry="3" style="stroke:#038048;stroke-width:1;"/></g><text fill="#000000" font-family="sans-serif" font-size="14" lengthAdjust="spacing" textLength="112.7451" x="71.06" y="1141.6889">String comment</text><g data-visibility-modifier="PUBLIC_FIELD"><ellipse cx="62.06" cy="1154.6391" fill="none" rx="3" ry="3" style="stroke:#038048;stroke-width:1;"/></g><text fill="#000000" font-family="sans-serif" font-size="14" lengthAdjust="spacing" textLength="170.3105" x="71.06" y="1157.9857">ReviewType reviewType</text><g data-visibility-modifier="PUBLIC_FIELD"><ellipse cx="62.06" cy="1170.9359" fill="none" rx="3" ry="3" style="stroke:#038048;stroke-width:1;"/></g><text fill="#000000" font-family="sans-serif" font-size="14" lengthAdjust="spacing" textLength="177.8369" x="71.06" y="1174.2826">LocalDateTime createdAt</text><line style="stroke:#181818;stroke-width:0.5;" x1="52.06" x2="253.8969" y1="1181.5844" y2="1181.5844"/></g><!--class Course--><g class="entity" data-qualified-name="Course" data-source-line="74" id="ent0012"><rect fill="#F1F1F1" height="113.1875" rx="2.5" ry="2.5" style="stroke:#181818;stroke-width:0.5;" width="160.333" x="318.81" y="869.61"/><ellipse cx="370.288" cy="885.61" fill="#ADD1B2" rx="11" ry="11" style="stroke:#181818;stroke-width:1;"/><path d="M373.2568,891.2506 Q372.6787,891.5475 372.038,891.6881 Q371.3974,891.8444 370.6943,891.8444 Q368.1943,891.8444 366.8662,890.2037 Q365.5537,888.5475 365.5537,885.4225 Q365.5537,882.2975 366.8662,880.6412 Q368.1943,878.985 370.6943,878.985 Q371.3974,878.985 372.038,879.1412 Q372.6943,879.2975 373.2568,879.5944 L373.2568,882.3131 Q372.6318,881.735 372.038,881.4694 Q371.4443,881.1881 370.8193,881.1881 Q369.4755,881.1881 368.788,882.2662 Q368.1005,883.3287 368.1005,885.4225 Q368.1005,887.5162 368.788,888.5944 Q369.4755,889.6569 370.8193,889.6569 Q371.4443,889.6569 372.038,889.3912 Q372.6318,889.11 373.2568,888.5319 L373.2568,891.2506 Z " fill="#000000"/><text fill="#000000" font-family="sans-serif" font-size="14" lengthAdjust="spacing" textLength="48.877" x="390.788" y="890.4567">Course</text><line style="stroke:#181818;stroke-width:0.5;" x1="319.81" x2="478.143" y1="901.61" y2="901.61"/><g data-visibility-modifier="PUBLIC_FIELD"><ellipse cx="329.81" cy="915.2584" fill="none" rx="3" ry="3" style="stroke:#038048;stroke-width:1;"/></g><text fill="#000000" font-family="sans-serif" font-size="14" lengthAdjust="spacing" textLength="52.6299" x="338.81" y="918.6051">UUID id</text><g data-visibility-modifier="PUBLIC_FIELD"><ellipse cx="329.81" cy="931.5553" fill="none" rx="3" ry="3" style="stroke:#038048;stroke-width:1;"/></g><text fill="#000000" font-family="sans-serif" font-size="14" lengthAdjust="spacing" textLength="128.8711" x="338.81" y="934.902">String courseCode</text><g data-visibility-modifier="PUBLIC_FIELD"><ellipse cx="329.81" cy="947.8522" fill="none" rx="3" ry="3" style="stroke:#038048;stroke-width:1;"/></g><text fill="#000000" font-family="sans-serif" font-size="14" lengthAdjust="spacing" textLength="134.333" x="338.81" y="951.1989">String courseName</text><g data-visibility-modifier="PUBLIC_FIELD"><ellipse cx="329.81" cy="964.1491" fill="none" rx="3" ry="3" style="stroke:#038048;stroke-width:1;"/></g><text fill="#000000" font-family="sans-serif" font-size="14" lengthAdjust="spacing" textLength="93.9736" x="338.81" y="967.4957">String faculty</text><line style="stroke:#181818;stroke-width:0.5;" x1="319.81" x2="478.143" y1="974.7975" y2="974.7975"/></g><!--class PriceHistory--><g class="entity" data-qualified-name="PriceHistory" data-source-line="81" id="ent0013"><rect fill="#F1F1F1" height="129.4844" rx="2.5" ry="2.5" style="stroke:#181818;stroke-width:0.5;" width="222.3965" x="513.78" y="861.46"/><ellipse cx="578.6257" cy="877.46" fill="#ADD1B2" rx="11" ry="11" style="stroke:#181818;stroke-width:1;"/><path d="M581.5945,883.1006 Q581.0163,883.3975 580.3757,883.5381 Q579.7351,883.6944 579.032,883.6944 Q576.532,883.6944 575.2038,882.0537 Q573.8913,880.3975 573.8913,877.2725 Q573.8913,874.1475 575.2038,872.4912 Q576.532,870.835 579.032,870.835 Q579.7351,870.835 580.3757,870.9912 Q581.032,871.1475 581.5945,871.4444 L581.5945,874.1631 Q580.9695,873.585 580.3757,873.3194 Q579.782,873.0381 579.157,873.0381 Q577.8132,873.0381 577.1257,874.1162 Q576.4382,875.1787 576.4382,877.2725 Q576.4382,879.3662 577.1257,880.4444 Q577.8132,881.5069 579.157,881.5069 Q579.782,881.5069 580.3757,881.2412 Q580.9695,880.96 581.5945,880.3819 L581.5945,883.1006 Z " fill="#000000"/><text fill="#000000" font-family="sans-serif" font-size="14" lengthAdjust="spacing" textLength="84.2051" x="599.1257" y="882.3067">PriceHistory</text><line style="stroke:#181818;stroke-width:0.5;" x1="514.78" x2="735.1765" y1="893.46" y2="893.46"/><g data-visibility-modifier="PUBLIC_FIELD"><ellipse cx="524.78" cy="907.1084" fill="none" rx="3" ry="3" style="stroke:#038048;stroke-width:1;"/></g><text fill="#000000" font-family="sans-serif" font-size="14" lengthAdjust="spacing" textLength="52.6299" x="533.78" y="910.4551">UUID id</text><g data-visibility-modifier="PUBLIC_FIELD"><ellipse cx="524.78" cy="923.4053" fill="none" rx="3" ry="3" style="stroke:#038048;stroke-width:1;"/></g><text fill="#000000" font-family="sans-serif" font-size="14" lengthAdjust="spacing" textLength="175.998" x="533.78" y="926.752">Double averageSoldPrice</text><g data-visibility-modifier="PUBLIC_FIELD"><ellipse cx="524.78" cy="939.7022" fill="none" rx="3" ry="3" style="stroke:#038048;stroke-width:1;"/></g><text fill="#000000" font-family="sans-serif" font-size="14" lengthAdjust="spacing" textLength="151.0537" x="533.78" y="943.0489">Double demandScore</text><g data-visibility-modifier="PUBLIC_FIELD"><ellipse cx="524.78" cy="955.9991" fill="none" rx="3" ry="3" style="stroke:#038048;stroke-width:1;"/></g><text fill="#000000" font-family="sans-serif" font-size="14" lengthAdjust="spacing" textLength="111.542" x="533.78" y="959.3457">String semester</text><g data-visibility-modifier="PUBLIC_FIELD"><ellipse cx="524.78" cy="972.2959" fill="none" rx="3" ry="3" style="stroke:#038048;stroke-width:1;"/></g><text fill="#000000" font-family="sans-serif" font-size="14" lengthAdjust="spacing" textLength="196.3965" x="533.78" y="975.6426">LocalDateTime calculatedAt</text><line style="stroke:#181818;stroke-width:0.5;" x1="514.78" x2="735.1765" y1="982.9444" y2="982.9444"/></g><!--reverse link User to Buyer--><g class="link" data-entity-1="ent0002" data-entity-2="ent0003" data-link-type="extension" data-source-line="26" id="lnk5"><path codeLine="26" d="M207.6616,231.2768 C182.7416,259.1868 170.57,277.79 153.97,311.27 C131.34,356.93 123.31,415.74 120.48,454.08" fill="none" id="User-backto-Buyer" style="stroke:#181818;stroke-width:1;"/><polygon fill="none" points="219.65,217.85,203.186,227.2807,212.1372,235.2729,219.65,217.85" style="stroke:#181818;stroke-width:1;"/></g><!--reverse link User to Seller--><g class="link" data-entity-1="ent0002" data-entity-2="ent0004" data-link-type="extension" data-source-line="27" id="lnk6"><path codeLine="27" d="M302.1221,252.3136 C297.1421,282.1036 295,294.91 290.95,319.14" fill="none" id="User-backto-Seller" style="stroke:#181818;stroke-width:1;"/><polygon fill="none" points="305.09,234.56,296.2042,251.3243,308.04,253.3029,305.09,234.56" style="stroke:#181818;stroke-width:1;"/></g><!--link Seller to Listing--><g class="link" data-entity-1="ent0004" data-entity-2="ent0007" data-link-type="association" data-source-line="89" id="lnk14"><path codeLine="89" d="M302.83,416.78 C319.2,456.25 343.06,513.83 364.21,564.86" fill="none" id="Seller-Listing" style="stroke:#181818;stroke-width:1;"/><text fill="#000000" font-family="sans-serif" font-size="13" lengthAdjust="spacing" textLength="8.271" x="296.9791" y="436.4365">1</text><text fill="#000000" font-family="sans-serif" font-size="13" lengthAdjust="spacing" textLength="23.0356" x="337.4783" y="554.1589">0..*</text></g><!--link Listing to ListingImage--><g class="link" data-entity-1="ent0007" data-entity-2="ent0008" data-link-type="association" data-source-line="90" id="lnk15"><path codeLine="90" d="M515.67,730.87 C583.98,764.72 674.84,810.57 753.97,853.31 C763.34,858.37 773.03,863.73 782.7,869.15" fill="none" id="Listing-ListingImage" style="stroke:#181818;stroke-width:1;"/><text fill="#000000" font-family="sans-serif" font-size="13" lengthAdjust="spacing" textLength="8.271" x="523.3219" y="731.0836">1</text><text fill="#000000" font-family="sans-serif" font-size="13" lengthAdjust="spacing" textLength="23.0356" x="746.5675" y="858.3575">1..*</text></g><!--link Buyer to Transaction--><g class="link" data-entity-1="ent0003" data-entity-2="ent0009" data-link-type="association" data-source-line="91" id="lnk16"><path codeLine="91" d="M122.11,535.38 C127.83,607.64 140.03,761.76 147.26,853.08" fill="none" id="Buyer-Transaction" style="stroke:#181818;stroke-width:1;"/><text fill="#000000" font-family="sans-serif" font-size="13" lengthAdjust="spacing" textLength="8.271" x="113.9939" y="555.1287">1</text><text fill="#000000" font-family="sans-serif" font-size="13" lengthAdjust="spacing" textLength="23.0356" x="122.567" y="842.2173">0..*</text></g><!--link Seller to Transaction--><g class="link" data-entity-1="ent0004" data-entity-2="ent0009" data-link-type="association" data-source-line="92" id="lnk17"><path codeLine="92" d="M271.78,416.78 C248.93,514.56 196.81,737.59 169.84,853.01" fill="none" id="Seller-Transaction" style="stroke:#181818;stroke-width:1;"/><text fill="#000000" font-family="sans-serif" font-size="13" lengthAdjust="spacing" textLength="8.271" x="261.7567" y="436.4365">1</text><text fill="#000000" font-family="sans-serif" font-size="13" lengthAdjust="spacing" textLength="23.0356" x="172.6338" y="842.1404">0..*</text></g><!--link Listing to Transaction--><g class="link" data-entity-1="ent0007" data-entity-2="ent0009" data-link-type="association" data-source-line="93" id="lnk18"><path codeLine="93" d="M311.06,792.65 C300.78,803.23 290.31,813.61 279.97,823.31 C269.46,833.18 258.1,843.16 246.64,852.81" fill="none" id="Listing-Transaction" style="stroke:#181818;stroke-width:1;"/><text fill="#000000" font-family="sans-serif" font-size="13" lengthAdjust="spacing" textLength="8.271" x="296.4114" y="812.5026">1</text><text fill="#000000" font-family="sans-serif" font-size="13" lengthAdjust="spacing" textLength="23.0356" x="231.4729" y="842.1733">0..*</text></g><!--link Transaction to Review--><g class="link" data-entity-1="ent0009" data-entity-2="ent0011" data-link-type="association" data-source-line="94" id="lnk19"><path codeLine="94" d="M152.97,999.59 C152.97,1019.3 152.97,1040.51 152.97,1059.72" fill="none" id="Transaction-Review" style="stroke:#181818;stroke-width:1;"/><text fill="#000000" font-family="sans-serif" font-size="13" lengthAdjust="spacing" textLength="8.271" x="144.6131" y="1019.12">1</text><text fill="#000000" font-family="sans-serif" font-size="13" lengthAdjust="spacing" textLength="24.8066" x="127.7007" y="1048.8511">0..2</text></g><!--link User to Message--><g class="link" data-entity-1="ent0002" data-entity-2="ent0010" data-link-type="association" data-source-line="95" id="lnk20"><path codeLine="95" d="M388.19,234.41 C399.07,250.67 410.81,266.79 422.97,281.27 C431.52,291.44 441.28,301.51 451.23,310.97" fill="none" id="User-Message" style="stroke:#181818;stroke-width:1;"/><text fill="#000000" font-family="sans-serif" font-size="13" lengthAdjust="spacing" textLength="38.0352" x="423.97" y="277.3369">sends</text><text fill="#000000" font-family="sans-serif" font-size="13" lengthAdjust="spacing" textLength="8.271" x="384.056" y="254.2505">1</text><text fill="#000000" font-family="sans-serif" font-size="13" lengthAdjust="spacing" textLength="23.0356" x="418.5741" y="300.197">0..*</text></g><!--link User to Message--><g class="link" data-entity-1="ent0002" data-entity-2="ent0010" data-link-type="association" data-source-line="96" id="lnk21"><path codeLine="96" d="M428.32,217.68 C442.11,232.61 455.44,248.38 466.97,264.27 C477.36,278.57 486.77,295.24 494.65,310.94" fill="none" id="User-Message-1" style="stroke:#181818;stroke-width:1;"/><text fill="#000000" font-family="sans-serif" font-size="13" lengthAdjust="spacing" textLength="54.5645" x="477.97" y="277.3369">receives</text><text fill="#000000" font-family="sans-serif" font-size="13" lengthAdjust="spacing" textLength="8.271" x="436.2863" y="221.3279">1</text><text fill="#000000" font-family="sans-serif" font-size="13" lengthAdjust="spacing" textLength="23.0356" x="467.2859" y="300.1633">0..*</text></g><!--link Listing to Course--><g class="link" data-entity-1="ent0007" data-entity-2="ent0012" data-link-type="association" data-source-line="97" id="lnk22"><path codeLine="97" d="M405.45,792.74 C404.15,819.3 402.82,846.46 401.71,869.22" fill="none" id="Listing-Course" style="stroke:#181818;stroke-width:1;"/><text fill="#000000" font-family="sans-serif" font-size="13" lengthAdjust="spacing" textLength="23.0356" x="381.4134" y="812.2183">0..*</text><text fill="#000000" font-family="sans-serif" font-size="13" lengthAdjust="spacing" textLength="23.0356" x="377.6438" y="858.436">0..*</text></g><!--link Listing to PriceHistory--><g class="link" data-entity-1="ent0007" data-entity-2="ent0013" data-link-type="association" data-source-line="98" id="lnk23"><path codeLine="98" d="M509.52,792.74 C530.03,816.28 550.96,840.29 569.27,861.29" fill="none" id="Listing-PriceHistory" style="stroke:#181818;stroke-width:1;"/><text fill="#000000" font-family="sans-serif" font-size="13" lengthAdjust="spacing" textLength="8.271" x="507.2894" y="812.2183">1</text><text fill="#000000" font-family="sans-serif" font-size="13" lengthAdjust="spacing" textLength="23.0356" x="538.921" y="850.4441">0..*</text></g><?plantuml-src hLLDRzim3BtdLmWvRcYnxZZiiYO36g0RYdmCs96L64U0R0MKr2BOzjz7MR8jrqcmmqwnI8fyV7nKuDbv0kc5DE2Ss3aayMicnFlTRhKKMiNFZIVTL28q-WN9QN_wMeCsXUV8LryjgGTmXyAy3yPyXnfB4yXW_2bQLet7Ygk118MrbZyHgCn9TgyDFXsijpjggzrRQn0QeTqF9BtNsAABa3SUV732jJ_H-6Wbc2LutEeQXIJaJ_N5JrtXgBBhpsoMEBWFfuw43gEt7inJ87a0Xss1fGtF1WKm8r1XUsKDde4FUJPepDb46p3dagJud6NKxfQ2Ov0f81Pen_JvzyrD0bkSSqo6yAXTp7PfebvxKqv7ePEaZrxR9beNp4nbwRGz7Pd3V6WTjb4wHYLFTofQigGhtJ1df2KMTXUg2cCl4mVZPWYzEIF_huFDELSrats94XsT4xqnh1fIxs-h6Clo7PNP4ZIELuePcLJf9buH5XmKDoODPrmrOiGUgtTKZv7aWEvyZQiUwJTqxWeNF5YFpHbk7LiJvmD5QmGrP5xZYyRNIU9k3QWNUL-ghdEfTBLL5lMV_zJEmWPoLxg9teLLE35UUAJwnEsW7bWzhF-B8yrBRCr4s_oyGQCsqb9PnM4TDu7Ej0Q60GpTvOTaVZSNlE7p3xUtx-QTc6VTYdVUkzBRIdsM7hJnzK9ov_EN0MzhJ2DApHTH7-TP2Uc56j_lrFSfwacvwo644ldlnmrOKiGGcwP_0MivmRy0?></g></svg>